FILE "Bang^2 Busters (France) (En,Ja) (Unl) (Track 1).bin" BINARY
  TRACK 01 MODE1/2352
    INDEX 01 00:00:00
FILE "Bang^2 Busters (France) (En,Ja) (Unl) (Track 2).bin" BINARY
  TRACK 02 MODE1/2352
    INDEX 01 00:00:00
FILE "Bang^2 Busters (France) (En,Ja) (Unl) (Track 3).bin" BINARY
  TRACK 03 MODE1/2352
    INDEX 01 00:00:00
